<?xml version="1.0" encoding="UTF-8"?>
<svg width="20px" height="20px" viewBox="0 0 20 20" version="1.1" xmlns="http://www.w3.org/2000/svg" xmlns:xlink="http://www.w3.org/1999/xlink">
    <!-- Generator: Sketch 60.1 (88133) - https://sketch.com -->
    <title>Icon/Close Circle/Line</title>
    <desc>Created with Sketch.</desc>
    <g id="Symbols" stroke="none" stroke-width="1" fill="none" fill-rule="evenodd">
        <g id="Icon/Close-Circle/Line" transform="translate(-2.000000, -2.000000)">
            <polygon id="24pt-Bounding-Box" opacity="0" fill-rule="nonzero" points="0 0 24 0 24 24 0 24"></polygon>
            <path d="M11.9999996,2 L12.2799045,2.0038418 C17.6733312,2.15206821 21.9999996,6.57075806 21.9999996,12 L21.9999996,12 L21.9961578,12.279905 C21.8479314,17.6733316 17.4292419,22 11.9999996,22 C6.47714956,22 1.99999956,17.52285 1.99999956,12 C1.99999956,6.47715 6.47714956,2 11.9999996,2 L11.9999996,2 Z M11.9999997,4 C7.58171965,4 3.99999965,7.58172 3.99999965,12 C3.99999965,16.41828 7.58171965,20 11.9999997,20 L11.9999997,20 L12.2491791,19.9961932 C16.5521638,19.8645429 19.9999997,16.3349162 19.9999997,12 L19.9999997,12 L19.9961928,11.7508206 C19.8645426,7.44783584 16.3349159,4 11.9999997,4 Z M13.2958,9.28420171 C13.68792,8.89528197 14.32108,8.89787797 14.71,9.28999997 L14.71,9.28999997 L14.71,9.29 C14.7119387,9.29192645 14.7138715,9.29385924 14.7157964,9.29579993 C15.1047161,9.68791993 15.1021201,10.3210799 14.7099981,10.7099999 L14.7099981,10.7099999 L13.4099981,12 L14.7099981,13.29 L14.7099981,13.29 C15.1047162,13.6879183 15.1021202,14.3210783 14.7099982,14.7099983 L14.7099982,14.7099983 L14.7071049,14.7129034 C14.3120798,15.1047163 13.6789198,15.1021203 13.2899998,14.7099983 L13.2899998,14.7099983 L11.9999998,13.4099983 L10.7099998,14.7099983 L10.7099998,14.7099983 C10.3120815,15.1047162 9.67892152,15.1021202 9.29000152,14.7099982 L9.29000152,14.7099982 L9.28709645,14.707105 C8.8952836,14.3120799 8.8978796,13.6789199 9.2900016,13.2899999 L9.2900016,13.2899999 L10.5900016,12 L9.29000158,10.71 L9.29000158,10.71 L9.20647266,10.6154076 C8.90019997,10.2215127 8.92804295,9.65195873 9.29000172,9.28999996 C9.68212172,8.8978781 10.3178797,8.8978781 10.7100017,9.2900001 L10.7100017,9.2900001 L12.0000016,10.59 L13.2900016,9.29000003 C13.2919265,9.28805934 13.2938593,9.28612655 13.2958,9.28420171 Z" id="Fill" fill="#FF4500" fill-rule="evenodd"></path>
        </g>
    </g>
</svg>