<?xml version="1.0" encoding="UTF-8"?>
<svg width="20px" height="20px" viewBox="0 0 20 20" version="1.1" xmlns="http://www.w3.org/2000/svg" xmlns:xlink="http://www.w3.org/1999/xlink">
    <!-- Generator: Sketch 60.1 (88133) - https://sketch.com -->
    <title>Fill</title>
    <desc>Created with Sketch.</desc>
    <g id="Symbols" stroke="none" stroke-width="1" fill="none" fill-rule="evenodd">
        <g id="Icon/Info/Line" transform="translate(-2.000000, -2.000000)" fill="#939393">
            <path d="M11.9999996,2 L12.2799045,2.0038418 C17.6733312,2.15206821 21.9999996,6.57075806 21.9999996,12 L21.9999996,12 L21.9961578,12.279905 C21.8479314,17.6733316 17.4292419,22 11.9999996,22 C6.47714956,22 1.99999956,17.52285 1.99999956,12 C1.99999956,6.47715 6.47714956,2 11.9999996,2 L11.9999996,2 Z M11.9999997,4 C7.58171965,4 3.99999965,7.58172 3.99999965,12 C3.99999965,16.41828 7.58171965,20 11.9999997,20 L11.9999997,20 L12.2491791,19.9961932 C16.5521638,19.8645429 19.9999997,16.3349162 19.9999997,12 L19.9999997,12 L19.9961928,11.7508206 C19.8645426,7.44783584 16.3349159,4 11.9999997,4 Z M12,10 L12.1166211,10.0067277 C12.61396,10.0644928 13,10.4871641 13,11 L13,11 L13,16 C13,16.5522852 12.552285,17 12,17 C11.447715,17 11,16.5522852 11,16 L11,16 L11,11 L11,11 L11.0067277,10.8833788 C11.0644928,10.38604 11.4871639,10 12,10 L12,10 Z M12.7071,7.29289 C13.097624,7.683414 13.097624,8.31658 12.7071,8.7071 C12.316576,9.097624 11.68341,9.097624 11.29289,8.7071 C10.902366,8.316576 10.902366,7.68341 11.29289,7.29289 C11.683414,6.902366 12.31658,6.902366 12.7071,7.29289 Z" id="Fill"></path>
        </g>
    </g>
</svg>