<?xml version="1.0" encoding="UTF-8"?>
<svg width="617px" height="667px" viewBox="0 0 617 667" version="1.1" xmlns="http://www.w3.org/2000/svg" xmlns:xlink="http://www.w3.org/1999/xlink">
    <!-- Generator: Sketch 60.1 (88133) - https://sketch.com -->
    <title>Group</title>
    <desc>Created with Sketch.</desc>
    <g id="Page-1" stroke="none" stroke-width="1" fill="none" fill-rule="evenodd">
        <g id="iPhone-8" transform="translate(-10.000000, 0.000000)">
            <g id="Group" transform="translate(10.000000, -330.249305)">
                <g id="blob-shape(2)" transform="translate(297.500000, 1072.500000) scale(-1, 1) translate(-297.500000, -1072.500000) translate(0.000000, 804.000000)" fill="#FFFFFF" fill-rule="nonzero">
                    <path d="M450.882277,77.1090429 C509.402069,87.9577205 581.457982,111.396221 593.216631,152.647983 C604.975281,193.899744 556.436669,252.830832 510.769354,288.859156 C465.10204,324.753546 422.306024,337.745172 388.123902,389.042005 C353.805052,440.472772 328.100097,530.342681 297.746373,536.637593 C267.25592,542.932505 232.253428,465.786353 190.004326,416.900337 C147.618495,368.014321 98.2595115,347.656309 60.1122639,306.270614 C21.9650162,264.884918 -4.97049553,202.471539 0.772100884,139.790291 C6.5146973,76.9751087 44.6619449,13.8920579 100.447167,2.10584039 C156.095661,-9.54644287 229.245401,30.0981071 288.312107,48.982842 C347.378813,68.0015112 392.362485,66.2603654 450.882277,77.1090429 Z" id="Path"></path>
                </g>
                <g id="blob-shape(3)" transform="translate(341.000000, 291.000000) rotate(-4.000000) translate(-341.000000, -291.000000) translate(77.000000, 18.000000)" fill="#FFFFFF" fill-rule="nonzero">
                    <path d="M453.105184,128.517873 C475.772721,180.678956 490.369241,208.132158 499.127153,236.95802 C508.056789,265.955465 511.31954,296.325569 518.703662,344.88342 C526.087784,393.269688 537.593277,460.015285 513.380226,500.508758 C489.167175,540.830648 429.23558,555.243579 380.294307,540.144318 C331.353034,525.045057 293.230358,480.776769 232.268421,452.12249 C171.306484,423.639793 87.3335625,410.942687 40.4529744,363.414331 C-6.2558899,315.885976 -16.0441446,233.52637 29.8061009,193.20448 C75.8280702,152.711007 177.660263,154.426832 243.602189,116.335515 C309.372392,78.2441971 339.424051,0.345736823 369.647434,0 C399.870816,-0.512175735 430.60937,76.3567894 453.105184,128.517873 Z" id="Path"></path>
                </g>
                <g id="A-Human/Standing" transform="translate(66.000000, 697.000000)">
                    <g id="Head/Front/Wavy" transform="translate(69.973333, 0.000000)">
                        <g id="Head" stroke-width="1" transform="translate(46.080000, 26.415493)" fill="#915B3C">
                            <path d="M32.5489846,7.78314002 C37.4938898,16.9869128 36.9063065,40.3330457 30.5154572,41.9780167 C27.9667988,42.6340279 22.5374025,41.0270662 17.01154,37.7011476 L20.48,62.2042254 L0,62.2042254 L7.04985661,29.3887509 C3.11811247,24.7800181 0.457098289,19.1320501 0.901782472,12.8033797 C2.18310846,-5.43223584 27.6040795,-1.42063276 32.5489846,7.78314002 Z"></path>
                        </g>
                        <path d="M80.5624287,38.3311237 C80.3595643,37.1381236 79.8637766,35.8133098 79.4637345,34.6846196 C78.9479777,33.2295892 78.1674658,31.9176955 77.3085324,30.6812898 C75.6914365,28.3535024 73.7515298,26.251453 71.6096845,24.50681 C67.6973387,21.3200567 62.7171119,19.4819248 57.8196707,20.0788604 C55.3469475,20.3802316 52.9465626,21.3220891 50.9035045,22.8897708 C49.0576242,24.3061863 47.2820984,26.3912509 44.8918964,26.5410654 C42.2911598,26.7039452 39.9071732,24.4117242 37.8213999,22.9960346 C35.4696813,21.4000449 32.9678642,20.2370948 30.2192773,19.785038 C25.6147594,19.0279809 21.289147,20.581436 18.1157881,24.3538017 C14.7389037,28.3681644 12.2841659,34.2552093 14.5017878,39.5742072 C14.9139965,40.5629543 15.4443003,41.3965156 16.2053721,42.0873756 C16.903363,42.7208938 17.9693925,43.3949142 18.2523975,44.4071788 C18.5529912,45.4831726 17.6550454,46.8712801 17.3068434,47.8421714 C16.8080141,49.2331822 16.3984503,50.6932936 16.5440524,52.2052304 C16.7832842,54.6882037 18.345895,57.0585257 19.9959199,58.6905173 C21.6750389,60.3512525 23.7416366,61.3035622 25.9489434,61.7425537 C27.4228176,62.0356502 28.9290918,62.1973687 30.4270347,62.0873304 C31.1706502,62.0327468 31.8268515,61.8264615 32.547324,61.6624203 C33.2479598,61.5028794 33.6395382,61.6886959 34.2339809,62.072378 C36.9953956,63.8550553 39.9645677,64.5447539 43.1531348,64.2796751 C45.844195,64.0558242 48.9458769,63.4045954 51.1411494,61.563415 C53.579092,59.5185622 53.5305579,56.6987965 52.9568777,53.686101 C53.5646772,53.9868915 55.2461766,54.1731435 54.2413766,52.9741914 C53.8433181,52.4993431 53.091239,52.306123 52.5805075,52.0268175 C51.9858003,51.7016386 51.3819681,51.2813739 50.9201674,50.7509258 C49.0555083,48.6091 50.938814,44.2502509 53.2824657,43.5319539 C56.7644852,42.4648155 57.5440714,47.3821303 60.0297546,48.6541025 C61.4589298,49.3854647 62.9539633,48.3858299 64.0247537,47.3651455 C65.4590865,45.9977972 66.436644,44.1863765 67.2806337,42.3430185 C67.9758473,40.8249847 68.6227915,39.2856109 69.331362,37.7751258 C69.6622398,37.0697489 70.8077488,35.0757054 70.2324816,34.278146 C72.7264963,33.7815223 75.5043094,34.8164332 77.652238,36.1736197 C78.5400009,36.7346985 79.2168325,37.3532643 79.690403,38.3437534 C79.7918351,38.5559907 80.0126848,39.1868959 80.2900033,39.212736 C80.8062891,39.2609322 80.6133431,38.630898 80.5624287,38.3311237" id="hair" fill="#191847"></path>
                    </g>
                    <g id="Bottom/Sitting/Skinny-Jeans-1" transform="translate(0.000000, 159.345070)">
                        <g id="Objects/Seat/Cube" transform="translate(8.533333, 35.788732)" stroke-width="1">
                            <g id="Seat" transform="translate(46.933333, 0.000000)">
                                <polygon id="Seat-Stuff" fill="#AFB9C5" points="23.5713208 0 89.4952047 0 98.1333333 105.661972 0 105.661972"></polygon>
                                <polygon id="Seat-Stuff" fill-opacity="0.1" fill="#000000" points="23.5713208 0 43.8466569 0 55.9818868 105.661972 0 105.661972"></polygon>
                            </g>
                        </g>
                        <path d="M220.120471,17.6869047 L220.366413,17.5438937 C227.420629,13.5976166 238.941337,18.9566902 238.933338,24.9144244 C238.909108,42.948959 222.427035,127.945656 221.566484,133.318746 C220.705934,138.691837 211.487275,140.111073 210.950442,133.336355 C210.096251,122.556635 208.50927,85.2394907 210.097109,67.966767 C210.752538,60.8369306 211.458399,54.0467133 212.153306,47.9888879 C203.505076,63.5842957 190.129186,85.9145468 172.026136,114.978783 L162.198675,110.495304 C169.915875,85.1056897 176.243862,67.1812977 181.182638,56.7221279 C189.63902,38.8134899 197.568262,23.477129 200.905423,18.0750202 C206.154899,9.57730928 215.292537,12.5425434 220.120471,17.6869047 Z" id="Skin" fill="#915B3C"></path>
                        <path d="M178.172253,105.114603 L182.578323,18.5999927 C185.73215,3.63930147 212.364103,10.5696426 212.349466,18.5863034 C212.316215,36.7866052 201.342422,99.6637056 201.332517,105.086184 L178.172253,105.114603 Z" id="LegLower" fill="#1F28CF" transform="translate(195.260859, 57.452060) rotate(20.000000) translate(-195.260859, -57.452060) "></path>
                        <g id="Accessories/Shoe/Flat-Sneaker" transform="translate(183.893333, 113.330986) rotate(30.000000) translate(-183.893333, -113.330986) translate(157.866667, 96.288732)" fill="#E4E4E4">
                            <path d="M2.17135701,21.9522662 C1.29267456,24.34377 0.853333333,26.1455643 0.853333333,27.3576491 C0.853333333,28.8942521 1.10968679,31.1365381 1.6223937,34.084507 C3.4075146,34.084507 19.4506967,34.084507 49.7519401,34.084507 C51.0026564,29.9556012 50.2806704,27.7265379 47.5859822,27.3973169 C44.8912939,27.068096 42.6527706,26.7708358 40.8704122,26.5055364 L18.6373186,16.6080906 C18.1327698,16.383482 17.541671,16.6104183 17.3170624,17.114967 C17.3133606,17.1232827 17.3097724,17.1316486 17.306299,17.1400623 L15.9259418,20.4836768 L15.9259418,20.4836768 C13.4313653,21.6459219 11.4042629,22.2270445 9.84463457,22.2270445 C8.62902015,22.2270445 6.9690871,21.7567418 4.86483543,20.8161363 L4.86483856,20.8161294 C3.85642594,20.3653665 2.67353053,20.817431 2.22276773,21.8258437 C2.20419759,21.8673874 2.18705071,21.9095528 2.17135701,21.9522662 Z" id="shoe"></path>
                        </g>
                        <g id="Accessories/Shoe/Flat-Sneaker" transform="translate(206.506667, 107.366197)" fill="#E4E4E4">
                            <path d="M2.17135701,21.9522662 C1.29267456,24.34377 0.853333333,26.1455643 0.853333333,27.3576491 C0.853333333,28.8942521 1.10968679,31.1365381 1.6223937,34.084507 C3.4075146,34.084507 19.4506967,34.084507 49.7519401,34.084507 C51.0026564,29.9556012 50.2806704,27.7265379 47.5859822,27.3973169 C44.8912939,27.068096 42.6527706,26.7708358 40.8704122,26.5055364 L18.6373186,16.6080906 C18.1327698,16.383482 17.541671,16.6104183 17.3170624,17.114967 C17.3133606,17.1232827 17.3097724,17.1316486 17.306299,17.1400623 L15.9259418,20.4836768 L15.9259418,20.4836768 C13.4313653,21.6459219 11.4042629,22.2270445 9.84463457,22.2270445 C8.62902015,22.2270445 6.9690871,21.7567418 4.86483543,20.8161363 L4.86483856,20.8161294 C3.85642594,20.3653665 2.67353053,20.817431 2.22276773,21.8258437 C2.20419759,21.8673874 2.18705071,21.9095528 2.17135701,21.9522662 Z" id="shoe"></path>
                        </g>
                        <path d="M241.297385,31.0450448 C241.297385,53.6830986 230.531072,106.488771 230.524259,111.473475 L207.36,111.491243 C210.75053,64.373262 211.952786,40.5604721 210.966769,40.0528729 C209.487744,39.2914741 150.336715,45.9502021 132.596359,45.9502021 C107.014677,45.9502021 96.4320482,29.8413243 95.5733333,-4.40536496e-13 L146.249692,-4.40536496e-13 C156.567854,1.10252042 210.388331,11.9425779 230.376189,15.6689997 C238.933333,17.2643446 241.297385,24.8088438 241.297385,31.0450448 Z" id="Leg-and-Butt" fill="#2B44FF"></path>
                    </g>
                    <g id="Body/Lab-Coat" transform="translate(18.773333, 69.873239)">
                        <path d="M45.7959599,66.0693395 L60.9100108,68.2611569 C44.6864169,103.4104 35.9887559,121.999355 34.8170278,124.028023 C32.1806395,128.592526 35.2812091,136.542806 36.4932989,140.751495 C30.3677324,142.51784 32.324031,133.067214 24.5786421,135.424381 C17.5090104,137.575894 11.675053,142.453265 4.67323347,136.653532 C3.8124009,135.940489 3.08725498,133.608855 5.823377,132.250318 C12.6400548,128.865707 22.6485137,122.6723 24.2042954,120.389701 C26.3258816,117.276969 33.5231031,99.1701814 45.7959599,66.0693395 L45.7959599,66.0693395 Z M162.439571,75.5057227 L188.198821,97.3126927 C195.424462,99.811332 201.404458,102.709888 206.13881,106.008361 C207.231629,107.151903 208.491674,109.401213 203.677082,108.691494 L203.061277,108.602017 C198.436581,107.940505 193.732962,107.519651 192.982932,109.05354 C192.199567,110.655601 194.990779,112.831807 193.484862,114.962059 C192.480917,116.382226 188.488916,112.366681 181.508859,102.915424 L155.399421,89.9035449 L162.439571,75.5057227 Z" id="Skin" fill="#915B3C"></path>
                        <path d="M104.948274,7.85295022 L114.008373,3.95582945 C129.426056,34.4182759 150.972912,63.3122532 184.76549,86.3537112 L178.142585,100.470695 C149.00121,86.5927931 121.657532,76.2239261 108.871229,52.6925306 C104.579816,44.794786 105.515627,17.6955884 104.948274,7.85295022 Z" id="Coat-Back" fill="#DDE3E9" transform="translate(144.856882, 52.213262) rotate(5.000000) translate(-144.856882, -52.213262) "></path>
                        <path d="M76.8,93.7323944 C103.627372,96.57277 124.743456,96.57277 140.148253,93.7323944 C142.056804,93.3804909 142.357903,90.1896408 141.472814,88.0240624 C127.689688,54.3003713 118.238124,24.874555 118.238124,1.45083886 C115.709094,2.72402374 111.283053,2.91482641 104.96,2.02324686 C87.9668921,26.1621396 80.1557656,53.8587571 76.8,93.7323944 Z" id="Shirt" fill="#323337"></path>
                        <path d="M100.760424,-0.441970576 L100.734703,-0.000970575624 L107.817322,4.29101199e-14 C109.449767,9.58730916 114.563442,138.211728 130.244222,182.407368 L130.722639,183.720577 L43.848805,183.720577 C45.7321824,144.422701 60.5887589,97.2164487 75.6387604,57.7135773 C62.3309586,69.8733236 50.7320653,90.4784977 40.8421193,119.528135 L40.8421193,119.528135 L24.5697034,115.35701 C36.6686465,63.2964186 61.5439474,25.0315395 99.1956061,0.562372462 L99.4402839,4.29101199e-14 L100.069703,-0.000970575624 L100.760424,-0.441970576 Z" id="Coat-Front" fill="#F2F2F2"></path>
                    </g>
                </g>
                <g id="A-Human/Standing" transform="translate(401.500000, 828.500000) scale(-1, 1) translate(-401.500000, -828.500000) translate(283.000000, 660.000000)">
                    <g id="Head/Front/Curly" transform="translate(64.780000, 0.000000)">
                        <g id="Head" stroke-width="1" transform="translate(42.660000, 24.523474)" fill="#D4A181">
                            <path d="M30.1332397,7.22566994 C34.7111402,15.7702193 34.1671666,37.4441775 28.2506381,38.9713268 C25.8910958,39.5803618 20.8645252,38.0884352 15.7486909,35.0006246 L18.96,57.7488263 L0,57.7488263 L6.52700247,27.2842151 C2.88686035,23.0055032 0.423158797,17.7619135 0.834853304,11.8863332 C2.02108087,-5.04315008 25.5553392,-1.31887945 30.1332397,7.22566994 Z"></path>
                        </g>
                        <path d="M81.1928028,19.9039144 C80.8001805,18.5219464 79.744126,17.3386938 78.3209158,16.9876559 C77.9757894,16.902507 77.6193619,16.868115 77.2642364,16.8824537 C77.1368515,16.8875449 77.1011255,16.9243268 77.0415994,16.8351256 C76.9974365,16.7689911 76.996447,16.6074212 76.9782715,16.5297014 C76.9217139,16.288022 76.8509908,16.0493557 76.7637067,15.8168717 C76.46592,15.0239324 75.9654945,14.3221684 75.3622134,13.7310097 C74.2338214,12.6250612 72.7091616,11.8617864 71.1251319,11.7236987 C70.2581756,11.6481609 69.3975209,11.7892098 68.5779043,12.0716194 C68.153566,12.2178116 67.7420912,12.3998505 67.3413446,12.6011115 C67.2206779,12.6616872 66.8292014,12.9583835 66.7081181,12.9391614 C66.5743797,12.9179651 66.3056008,12.5851623 66.1968603,12.5016239 C64.8527578,11.4689794 63.1929534,11.0629766 61.5187753,11.0751174 C59.629095,11.0893681 57.8094607,11.1839202 56.2334512,12.3374564 C55.8998342,12.5816815 55.5821013,12.8490771 55.2795753,13.1306035 C55.1202662,13.2788218 54.9659566,13.4325989 54.8187819,13.5927661 C54.7299875,13.6893963 54.6435366,13.7882085 54.5603146,13.8896703 C54.4190768,14.0618903 54.4417311,14.1184657 54.2440399,13.9983013 C53.4855638,13.5368661 52.6066294,13.3210586 51.7213414,13.4300014 C51.1956577,13.4947332 50.6841915,13.6527704 50.1985565,13.8607851 C50.0332062,13.9315953 49.6504789,14.2140569 49.4742441,14.2168103 C49.2994155,14.2195118 48.9220523,13.9576751 48.7419637,13.8911249 C47.7692874,13.531567 46.7208885,13.4429373 45.698529,13.609079 C44.6439327,13.7805197 43.6079807,14.2018482 42.7144642,14.7840713 C42.2847097,15.0641431 41.9097421,15.3744508 41.6085703,15.7908958 C41.4785294,15.9707008 41.3609875,16.1608961 41.2136044,16.3276092 C41.1273098,16.4252265 40.9564392,16.5253894 40.9101411,16.6489306 C40.937847,16.5749514 39.7568033,16.119023 39.6453546,16.089878 C39.0516039,15.9345943 38.4470208,15.9660771 37.8656127,16.1576751 C36.7723219,16.5179603 35.8320907,17.3259136 35.059345,18.154284 C34.6624523,18.5797687 34.3151386,19.0500877 34.0203203,19.5511621 C33.8790305,19.7911791 33.7498229,20.0380538 33.6316039,20.2901755 C33.5743172,20.412314 33.5363518,20.5651041 33.4608895,20.6751379 C33.3636063,20.8169141 33.2982474,20.8196156 33.1220647,20.8814382 C32.2272983,21.1953305 31.4116397,21.7266409 30.7904955,22.4445619 C30.1622165,23.170899 29.7545434,24.065352 29.5836207,25.0072888 C29.5735695,25.0627733 29.5675804,25.2927116 29.5351353,25.3227397 C29.49066,25.3640933 29.3107277,25.3458063 29.2426606,25.3538069 C29.0069519,25.3814971 28.7729096,25.4226949 28.5419921,25.477452 C28.1162997,25.5783423 27.7019606,25.7268203 27.3100153,25.9210159 C25.7821266,26.6780046 24.6895128,28.09717 24.1547674,29.6940623 C23.5936701,31.3699213 23.6036171,33.2899014 24.2742362,34.9344854 C24.3825602,35.2001146 24.5114553,35.4579511 24.6628484,35.7018644 C24.7558091,35.8515893 24.7858065,35.851953 24.7254472,36.009055 C24.6581613,36.1838206 24.5352553,36.3536509 24.4553664,36.5244162 C24.1947118,37.0817024 24.012488,37.6727573 23.8973938,38.2764364 C23.708556,39.2666883 23.6149703,40.3073335 23.8012563,41.3051184 C23.8877592,41.768424 24.0384753,42.2213392 24.2684034,42.6339918 C24.3856328,42.8443963 24.5228084,43.0439429 24.6776909,43.2285274 C24.7581006,43.3243783 24.8435099,43.4159173 24.9328251,43.5036118 C24.9839144,43.5536933 25.0508878,43.5975405 25.0943215,43.6534925 C25.200354,43.7899178 25.2226437,43.677754 25.167961,43.8780799 C25.0915093,44.1581516 24.9181909,44.4344829 24.8120543,44.7070217 C24.7026887,44.9878727 24.6038431,45.2725682 24.5134343,45.5600691 C24.3303251,46.1422402 24.1754947,46.7349575 24.0786802,47.3378574 C23.8927588,48.4953939 23.9254122,49.7287799 24.4721878,50.7911409 C24.7059697,51.2455627 25.0413573,51.6441883 25.4481451,51.9542882 C25.6472424,52.1059873 25.8629009,52.2367498 26.0891313,52.344134 C26.2053712,52.3994106 26.3537959,52.4231006 26.4068122,52.53568 C26.4638906,52.6567276 26.3791583,52.8971082 26.3598371,53.0324425 C26.1917266,54.2097726 26.107411,55.4459121 26.456912,56.5996562 C26.7788112,57.6623288 27.487552,58.6005771 28.4077328,59.221764 C30.1928389,60.4267844 32.5990891,60.3588315 34.4747602,59.3941398 C34.9636762,59.1426415 35.4210846,58.8304116 35.8291222,58.4621257 C36.8681469,59.8627444 39.0062433,59.8184296 40.5248098,59.4193364 C42.4167295,58.9221583 43.9348274,57.6048183 44.8094913,55.8739944 C46.0054816,57.3319158 48.5154729,56.8588953 49.3448282,55.2772768 C49.5478315,54.8901845 49.6682377,54.4635568 49.7275035,54.0318379 C49.7586987,53.8048089 49.7388046,53.5758056 49.76224,53.3505949 C49.7921333,53.0636135 49.9835751,52.7847366 50.0936176,52.5071066 C50.307922,51.9668086 50.4409834,51.4086911 50.4467121,50.8258966 C50.4496806,50.5216153 50.4111943,50.2250748 50.3822906,49.9232353 C50.3563032,49.6515277 50.4315571,49.3983669 50.4743139,49.1301921 C49.9890954,49.2101978 49.3979486,49.0791755 48.9408007,48.9382824 C48.4921936,48.8000388 48.0720216,48.4359092 47.7553824,48.1033661 C47.0201855,47.3311556 46.5710577,46.3188761 46.2638968,45.3113762 C45.5896322,43.1001027 45.8660145,40.4470836 48.0871245,39.2334912 C49.1218267,38.6681524 52.2216637,38.6700068 53.4540399,38.9494165 C54.7498295,39.2432035 56.218817,42.106318 56.2911024,42.375428 C56.3358381,42.5419852 56.3133401,42.7481297 56.4661394,42.8590986 C56.8019437,43.1031159 57.3557499,42.6796573 57.6034368,42.4706555 C58.0308478,42.1099546 58.3357173,41.6300245 58.5997569,41.1435485 C59.1750717,40.0837332 59.6388858,38.9471852 59.9665137,37.7869472 C60.219096,36.8924423 60.3805925,35.9700393 60.7107202,35.0983412 C61.0392334,34.2309551 61.5571053,33.4556794 62.3622961,32.9643199 C63.2382099,32.4297885 64.2422376,32.1482621 65.2038211,31.8123422 C66.1569679,31.4794355 67.0936577,31.0725496 67.8325,30.3661619 C67.9949339,30.2108262 68.1527328,30.0457755 68.2835027,29.8629054 C68.3867229,29.7185316 68.4887454,29.4421484 68.6460234,29.3506094 C68.8905335,29.2082097 69.2473777,29.5785217 69.4588177,29.7129727 C70.5019566,30.3763964 71.372246,31.3016567 72.0741644,32.3124296 C72.772177,33.3176956 73.3449296,34.2849849 73.8103581,35.4075059 C74.1555886,36.2400324 74.3710491,37.3062378 74.9782362,37.9885199 C75.2493065,38.2931648 77.2642364,38.4774667 77.9168882,38.2114967 C78.5695401,37.9455267 79.3009873,37.2549095 79.5200308,36.8220996 C79.7442823,36.3791072 79.7978714,35.8924753 79.7020463,35.4075059 C79.645697,35.122187 79.5306028,34.8556746 79.4676395,34.575447 C79.4146233,34.3400537 79.3665024,34.1175444 79.2520853,33.9018928 C79.035229,33.4932405 78.6647402,33.1995054 78.2179559,33.0766915 C78.6829157,32.6474143 79.0681949,32.1338715 79.3347864,31.5598048 C79.6117937,30.963399 79.8465651,30.2381008 79.9131739,29.583509 C79.9673359,29.051835 79.8837494,28.5009908 79.5930974,28.0440753 C79.2881759,27.5647687 78.7480143,27.2520712 78.2806589,26.953089 C78.9945554,26.3937766 79.6055443,25.7135726 80.1078446,24.9604803 C81.0846872,23.495961 81.6889057,21.6499082 81.1928028,19.9039144 Z" id="hair" fill="#191847"></path>
                    </g>
                    <g id="Bottom/Standing/Baggy-Pants" transform="translate(0.000000, 147.931925)">
                        <polygon id="Leg" fill="#997659" points="105.86 0 144.634495 98.2734 170.64071 181.355276 180.91 181.355276 141.152213 4.02689606e-13"></polygon>
                        <path d="M98.0521361,0 C97.6392431,34.5339475 91.6177479,81.0283025 90.6557159,83.1809731 C90.0143612,84.6160868 67.8737643,102.866058 24.2339251,137.930887 L31.3069663,145.510221 C82.7979337,115.446529 109.734792,98.409806 112.11754,94.4000505 C115.691663,88.3854172 127.327776,33.0379746 136.67,0 L98.0521361,0 Z" id="Leg" fill="#BA8B72"></path>
                        <g id="Accessories/Shoe/Flat-Pointy" transform="translate(40.685000, 149.514085) rotate(50.000000) translate(-40.685000, -149.514085) translate(16.590000, 133.692488)" fill="#191847">
                            <path d="M0,31.6431925 L0.79,15.0305164 L17.38,15.0305164 C25.2465066,20.5680751 35.5165066,25.0508607 48.19,28.4788732 L48.19,31.6431925 L18.17,31.6431925 L7.9,30.0610329 L7.9,31.6431925 L0,31.6431925 Z" id="Shoe"></path>
                        </g>
                        <g id="Accessories/Shoe/Flat-Pointy" transform="translate(164.320000, 157.424883)" fill="#191847">
                            <path d="M0,31.6431925 L0.79,15.0305164 L17.38,15.0305164 C25.2465066,20.5680751 35.5165066,25.0508607 48.19,28.4788732 L48.19,31.6431925 L18.17,31.6431925 L7.9,30.0610329 L7.9,31.6431925 L0,31.6431925 Z" id="Shoe"></path>
                        </g>
                        <polygon id="Pant" fill="#69A1AC" points="131.93 172.797849 180.755527 167.491632 144.57 2.84217094e-14 100.838818 2.84217094e-14"></polygon>
                        <path d="M34.3333669,125.702961 L66.36,163.663307 C100.092963,126.770509 119.759368,102.697952 125.359216,91.4456354 C130.959064,80.1933188 135.993042,49.7114404 140.461151,0 L91.2277352,0 C88.7870275,43.7339568 87.1418206,66.6185127 86.2921146,68.6536677 C85.4424085,70.6888228 68.122826,89.7052539 34.3333669,125.702961 Z" id="Pant" fill="#89C5CC"></path>
                    </g>
                    <g id="Body/Jacket-2" transform="translate(17.380000, 64.868545)">
                        <path d="M40.6915435,64.8685446 L56.88,68.0849522 C40.5997451,98.4665418 31.8689368,114.568802 30.6875752,116.391733 C28.0295116,120.493327 30.5095387,128.01035 31.4256504,131.968867 C25.6784795,133.308514 27.9449871,124.646495 20.6720534,126.455045 C14.0336568,128.105807 8.40509691,132.342249 2.21506394,126.628731 C1.45403576,125.926287 0.896927147,123.730648 3.49165772,122.604515 C9.95607782,119.798908 19.5067141,114.545464 21.0553505,112.505865 C23.167193,109.724508 29.7125907,93.8454009 40.6915435,64.8685446 Z M200.808652,40.546929 C198.263325,44.2697265 195.753223,48.3001802 196.770269,49.6048941 C197.787314,50.9096079 200.733474,49.4695591 201.897412,51.5912798 C202.673371,53.0057602 197.707206,54.6977743 186.998918,56.6673219 L165.560253,73.1268536 L156.42,61.4013111 L185.045308,48.8129263 C190.059795,43.8092264 194.901996,40.006183 199.571912,37.4037962 L199.727886,37.3566349 C201.135289,36.9539427 203.261422,36.9595058 200.808652,40.546929 Z" id="Skin" fill="#D4A181"></path>
                        <path d="M97.3866431,7.8088232 L104.089615,6.04460291 C120.171735,19.1459176 129.246828,53.2078457 139.525515,56.9223354 C149.243597,60.4342351 162.116311,55.0868534 177.358346,48.0536803 L183.121016,58.4144836 C170.177747,75.1557261 140.86145,90.9076404 127.860578,84.5168213 C107.074885,74.2992298 98.7851087,32.034946 97.3866431,7.8088232 Z" id="Coat-Back" fill="#DB2721" transform="translate(140.253829, 46.008019) rotate(5.000000) translate(-140.253829, -46.008019) "></path>
                        <path d="M71.1,90.1830986 C98.4906871,90.1830986 118.638702,90.1830986 131.544046,90.1830986 C134.306031,90.1830986 133.785587,86.1894406 133.386326,84.1742189 C128.778364,60.916125 110.79063,35.8450252 110.79063,2.73771387 L93.3557221,0 C78.9348131,23.224843 73.9478128,51.819327 71.1,90.1830986 Z" id="Shirt" fill="#F2F2F2"></path>
                        <path d="M99.1342544,0 C114.786149,53.4271159 119.101099,89.0257075 112.079105,106.795775 L112.079105,106.795775 L57.67,106.795775 C58.5308723,93.7921548 61.2913064,80.0402947 65.0721872,66.6320724 C52.7500486,88.8909062 42.3924127,104.915417 33.9995817,114.706573 L21.33,112.221649 C29.4911682,61.5386303 53.1248223,24.1314141 92.2309622,-9.9475983e-14 Z" id="Coat-Front" fill="#FF4133"></path>
                    </g>
                </g>
            </g>
        </g>
    </g>
</svg>