<?xml version="1.0" encoding="UTF-8"?>
<svg width="18px" height="12px" viewBox="0 0 18 12" version="1.1" xmlns="http://www.w3.org/2000/svg" xmlns:xlink="http://www.w3.org/1999/xlink">
    <!-- Generator: Sketch 60.1 (88133) - https://sketch.com -->
    <title>Fill</title>
    <desc>Created with Sketch.</desc>
    <g id="Symbols" stroke="none" stroke-width="1" fill="none" fill-rule="evenodd">
        <g id="Icon/Menu" transform="translate(-3.000000, -6.000000)" fill="#ffffff">
            <path d="M20.05,16 C20.574666,16 21,16.425334 21,16.95 L21,17.05 C21,17.574666 20.574666,18 20.05,18 L3.95,18 C3.425334,18 3,17.574666 3,17.05 L3,16.95 C3,16.425334 3.425334,16 3.95,16 L20.05,16 Z M20.05,11 C20.574666,11 21,11.425334 21,11.95 L21,12.05 C21,12.574666 20.574666,13 20.05,13 L3.95,13 C3.425334,13 3,12.574666 3,12.05 L3,11.95 C3,11.425334 3.425334,11 3.95,11 L20.05,11 Z M20.05,6 C20.574666,6 21,6.425334 21,6.95 L21,7.05 C21,7.574666 20.574666,8 20.05,8 L3.95,8 C3.425334,8 3,7.574666 3,7.05 L3,6.95 C3,6.425334 3.425334,6 3.95,6 L20.05,6 Z" id="Fill"></path>
        </g>
    </g>
</svg>