<?xml version="1.0" encoding="UTF-8"?>
<svg width="250px" height="264px" viewBox="0 0 250 264" version="1.1" xmlns="http://www.w3.org/2000/svg" xmlns:xlink="http://www.w3.org/1999/xlink">
    <!-- Generator: Sketch 61.2 (89653) - https://sketch.com -->
    <title>Group</title>
    <desc>Created with Sketch.</desc>
    <defs>
        <linearGradient x1="50%" y1="0%" x2="50%" y2="100%" id="linearGradient-1">
            <stop stop-color="#FFF24C" offset="0%"></stop>
            <stop stop-color="#FF9032" offset="100%"></stop>
        </linearGradient>
    </defs>
    <g id="Page-1" stroke="none" stroke-width="1" fill="none" fill-rule="evenodd">
        <g id="iPhone-8-Copy-4" transform="translate(-71.000000, -169.000000)">
            <g id="Group" transform="translate(71.000000, 169.000000)">
                <circle id="Oval" fill="url(#linearGradient-1)" cx="125" cy="125" r="125"></circle>
                <g id="A-Human/Standing" transform="translate(30.000000, 38.000000)">
                    <g id="Head/Front/Long" transform="translate(51.660000, 0.000000)">
                        <path d="M46.305,16.9859155 C51.7986954,16.9859155 56.5624543,20.1111446 58.9153956,24.6807215 C59.2193402,25.1516885 59.5294116,25.8591372 59.85,26.8569126 C62.0394168,33.6710897 65.5507736,54.2316411 62.4438793,57.2629597 L44.1738793,57.2629597 L44.164626,57.0882882 C37.3515667,56.0564127 32.13,50.1749006 32.13,43.0738263 L32.13,31.1609155 C32.13,23.3322792 38.4763637,16.9859155 46.305,16.9859155 Z" id="Hair-Back" fill="#191847"></path>
                        <g id="Head" stroke-width="1" transform="translate(34.020000, 19.502347)" fill="#D4A181">
                            <path d="M24.0303051,5.7462301 C27.6810358,12.541302 27.2472341,29.7775655 22.5289899,30.9920343 C20.6473787,31.4763582 16.6390078,30.2899748 12.559402,27.8345168 L15.12,45.9248826 L0,45.9248826 L5.20394766,21.6965078 C2.3016698,18.2940951 0.337498362,14.1245948 0.66576909,9.45263296 C1.61174804,-4.01057632 20.3795743,-1.04884182 24.0303051,5.7462301 Z"></path>
                        </g>
                        <path d="M45.9908936,17.6150235 C53.2863129,17.6150235 55.5890488,21.00486 57.549669,23.8828802 C56.0834898,28.9066016 50.3934298,29.6513053 45.3376956,32.7829544 C44.7421266,32.2988902 43.982433,32.0092739 43.155,32.0092739 C41.2413333,32.0092739 39.69,33.5584107 39.69,35.4693678 C39.69,37.3803249 41.2413333,38.9294617 43.155,38.9294617 L43.3124251,38.9253882 C44.0091315,46.3980711 43.7300749,54.9319373 41.6538793,56.9576291 L23.3838793,56.9576291 C22.3659292,39.2962768 32.2038793,46.135543 32.2038793,29.5069212 C32.8171106,28.9086068 33.3965716,28.316411 33.9699489,27.8056683 L33.9499925,27.3163092 C37.113647,20.8487854 41.1272807,17.6150235 45.9908936,17.6150235 Z" id="Hair-Front" fill="#191847"></path>
                    </g>
                    <g id="Bottom/Sitting/Baggy-Pants" transform="translate(0.000000, 117.643192)">
                        <g id="Objects/Seat/Cube-2" transform="translate(6.300000, 26.422535)" fill="#C5CFD6">
                            <path d="M103.7,0 C112.536556,-9.47168734e-15 119.7,7.163444 119.7,16 L119.7,62.0093897 C119.7,70.8459457 112.536556,78.0093897 103.7,78.0093897 L43.09,78.0093897 C34.253444,78.0093897 27.09,70.8459457 27.09,62.0093897 L27.09,16 C27.09,7.163444 34.253444,-1.53107837e-16 43.09,0 L103.7,0 Z M98.06,17.6150235 L48.73,17.6150235 C46.520861,17.6150235 44.73,19.4058845 44.73,21.6150235 L44.73,21.6150235 L44.73,56.3943662 C44.73,58.6035052 46.520861,60.3943662 48.73,60.3943662 L48.73,60.3943662 L98.06,60.3943662 C100.269139,60.3943662 102.06,58.6035052 102.06,56.3943662 L102.06,56.3943662 L102.06,21.6150235 C102.06,19.4058845 100.269139,17.6150235 98.06,17.6150235 L98.06,17.6150235 Z" id="Seat"></path>
                        </g>
                        <path d="M188.470147,101.286385 C176.04915,86.1400912 167.644806,74.9113063 163.257116,67.6000302 C155.744326,55.0813506 149.595466,43.9420379 147.655039,39.6868705 C143.027843,29.5398783 158.307594,24.7885016 161.765749,29.5213953 C166.999804,36.6848179 178.177888,59.2260922 195.3,97.1452179 L188.470147,101.286385 Z" id="LegLower" fill="#2026A2"></path>
                        <path d="M163.017267,96.8826291 L139.901074,38.7761883 C134.95698,28.1837715 158.832927,21.2211185 162.466463,26.150617 C170.715713,37.3421047 190.322273,81.4909001 192.78,84.8252182 L163.017267,96.8826291 Z" id="LegLower" fill="#2F3676"></path>
                        <g id="Lower-Leg" stroke-width="1" transform="translate(138.708965, 61.966685) rotate(39.000000) translate(-138.708965, -61.966685) translate(121.383965, 16.670911)" fill="#D4A181">
                            <path d="M3.03059093,86.7886126 C2.39640998,78.8614649 1.21818038,51.4193309 2.39704699,38.7173837 C2.73580597,35.0673535 3.09271131,31.5383598 3.45238605,28.2278507 C4.52146666,18.3878462 22.7927875,18.698895 21.3418156,28.0473924 C17.728322,51.3288457 11.3681613,83.9564545 10.9123047,86.7756636 C10.2734022,90.7269055 3.42915389,91.7705777 3.03059093,86.7886126 Z" id="LegLower"></path>
                        </g>
                        <g id="Accessories/Shoe/Flat-Sneaker" transform="translate(119.385000, 88.075117) rotate(30.000000) translate(-119.385000, -88.075117) translate(100.170000, 75.492958)" fill="#E4E4E4">
                            <path d="M1.40399689,16.7647095 C0.887998965,18.2554239 0.63,19.399832 0.63,20.1979338 C0.63,21.3323955 0.819260949,22.9878573 1.19778285,25.1643192 C2.51570414,25.1643192 14.3600847,25.1643192 36.7309245,25.1643192 C37.6543049,22.1159811 37.1212762,20.4702814 35.1318384,20.2272202 C33.1424006,19.984159 31.4897408,19.7646942 30.173859,19.5688258 L14.0053078,12.3710109 C13.5007602,12.1463995 12.9096602,12.3733327 12.6850489,12.8778802 C12.6813455,12.8861991 12.677756,12.8945682 12.6742812,12.9029851 L11.7578242,15.1229349 L11.7578242,15.1229349 C9.91612517,15.9810112 8.41955346,16.4100494 7.26810912,16.4100494 C6.46417365,16.4100494 5.39701545,16.1314291 4.06663454,15.5741886 L4.06662824,15.5742037 C3.04782827,15.1474713 1.87599277,15.6274369 1.4492604,16.6462369 C1.43292393,16.6852393 1.41782851,16.72475 1.40399689,16.7647095 Z" id="shoe"></path>
                        </g>
                        <g id="Accessories/Shoe/Flat-Sneaker" transform="translate(181.440000, 83.042254)" fill="#E4E4E4">
                            <path d="M1.40399689,16.7647095 C0.887998965,18.2554239 0.63,19.399832 0.63,20.1979338 C0.63,21.3323955 0.819260949,22.9878573 1.19778285,25.1643192 C2.51570414,25.1643192 14.3600847,25.1643192 36.7309245,25.1643192 C37.6543049,22.1159811 37.1212762,20.4702814 35.1318384,20.2272202 C33.1424006,19.984159 31.4897408,19.7646942 30.173859,19.5688258 L14.0053078,12.3710109 C13.5007602,12.1463995 12.9096602,12.3733327 12.6850489,12.8778802 C12.6813455,12.8861991 12.677756,12.8945682 12.6742812,12.9029851 L11.7578242,15.1229349 L11.7578242,15.1229349 C9.91612517,15.9810112 8.41955346,16.4100494 7.26810912,16.4100494 C6.46417365,16.4100494 5.39701545,16.1314291 4.06663454,15.5741886 L4.06662824,15.5742037 C3.04782827,15.1474713 1.87599277,15.6274369 1.4492604,16.6462369 C1.43292393,16.6852393 1.41782851,16.72475 1.40399689,16.7647095 Z" id="shoe"></path>
                        </g>
                        <path d="M131.583117,41.6784366 C112.370121,38.5528287 99.5009964,36.4155501 92.9757418,35.2666007 C74.3761942,31.9916423 68.9524078,21.9969685 72.1592399,0.190134461 L106.42859,0.190134461 C110.963588,1.49790209 129.912568,9.58602058 163.27553,24.45449 C169.278185,27.4300726 168.160293,36.2035904 167.063115,39.0940765 C167.018368,39.2119615 156.899042,56.5272488 136.705137,91.0399382 L108.671363,73.2064587 L131.635765,43.7798682 C132.242233,42.5600907 132.224684,41.8596135 131.583117,41.6784366 Z" id="Leg-and-Butt" fill="#5C63AB"></path>
                    </g>
                    <g id="Body/Jacket" transform="translate(13.860000, 51.586854)">
                        <path d="M43.0339947,58.5195561 L56.1993515,58.571256 C48.0703511,84.7759109 43.6818989,98.6799366 43.0339947,100.283333 C41.5762103,103.890976 44.6610781,109.385352 45.98029,112.337989 C41.6836607,114.257881 42.1414712,107.147739 36.7213889,109.665784 C31.7741892,111.964138 28.0108666,116.128602 22.2950922,112.606788 C21.5923713,112.173801 20.8223037,110.543529 22.6828844,109.269558 C27.3182694,106.095631 33.99814,100.540686 34.9006957,98.7122329 C36.1314917,96.2188106 38.8425913,82.8212516 43.0339947,58.5195561 L43.0339947,58.5195561 Z M122.247978,56.0676833 L140.094558,73.4530968 C145.287255,75.6649215 149.54193,78.1072226 152.858584,80.7800001 C153.60445,81.6784115 154.416446,83.3998143 150.907185,82.6295112 C147.397923,81.8592081 143.672014,81.2065659 143.012455,82.3461877 C142.352896,83.4858094 144.296341,85.2321149 143.077393,86.7235865 C142.264762,87.717901 139.531818,84.5551814 134.878562,77.235428 L116.320479,66.3095331 L122.247978,56.0676833 Z" id="Skin" fill="#D4A181"></path>
                        <path d="M76.8771083,5.81128915 L82.2227431,4.4069696 C93.6053587,26.8971624 111.770892,46.6479358 136.719342,63.6592898 L120.99366,86.5420804 C95.341552,61.4565813 78.5440259,34.7293446 76.8771083,5.81128915 Z" id="Coat-Back" fill="#191847" transform="translate(106.798225, 45.474525) rotate(5.000000) translate(-106.798225, -45.474525) "></path>
                        <path d="M56.7,71.7183099 L105.21,71.7183099 C93.9713478,44.4308435 88.3520217,21.2504646 88.3520217,2.17717305 L73.7189511,0 C62.2187325,18.469608 58.9710406,41.2094352 56.7,71.7183099 Z" id="Shirt" fill="#DDE3E9"></path>
                        <path d="M74.3700838,-2.68204864e-14 C75.5130474,0.0393023483 77.2539277,0.110113332 79.5927247,0.212432952 L79.5927247,0.212432952 L83.1285996,10.302826 C83.5026168,22.605374 85.6868202,47.3983279 89.6812099,84.6816876 L89.6812099,84.6816876 L57.8819105,84.6810401 C57.9652699,87.2562597 58.1027268,89.8555375 58.294281,92.4788732 L58.294281,92.4788732 L34.65,92.4788732 C38.1867674,52.633667 51.1025995,21.807376 73.3974965,8.70665042e-15 L73.3974965,8.70665042e-15 L73.408,0.01 L73.4148971,-2.68204864e-14 Z" id="Coat-Front" fill="#2F3676"></path>
                        <path d="M66.78,84.9295775 L57.8901212,84.9295843 C57.5009653,73.3822144 58.1982152,62.3179884 59.9818708,51.7369063 C60.8877652,67.7866067 63.1535536,78.8508432 66.78,84.9295775 Z" id="Shade" fill-opacity="0.1" fill="#000000"></path>
                        <polygon id="Light" fill-opacity="0.2" fill="#FFFFFF" points="64.9598663 65.42723 80.64 58.1479926 80.64 65.42723"></polygon>
                    </g>
                </g>
            </g>
        </g>
    </g>
</svg>