<?xml version="1.0" encoding="UTF-8"?>
<svg width="250px" height="308px" viewBox="0 0 250 308" version="1.1" xmlns="http://www.w3.org/2000/svg" xmlns:xlink="http://www.w3.org/1999/xlink">
    <!-- Generator: Sketch 61.2 (89653) - https://sketch.com -->
    <title>Group</title>
    <desc>Created with Sketch.</desc>
    <defs>
        <linearGradient x1="50%" y1="0%" x2="50%" y2="100%" id="linearGradient-1">
            <stop stop-color="#00FFAE" offset="0%"></stop>
            <stop stop-color="#00CCCB" offset="100%"></stop>
        </linearGradient>
    </defs>
    <g id="Page-1" stroke="none" stroke-width="1" fill="none" fill-rule="evenodd">
        <g id="iPhone-8-Copy-3" transform="translate(-63.000000, -159.000000)">
            <g id="Group" transform="translate(63.000000, 159.000000)">
                <circle id="Oval" fill="url(#linearGradient-1)" cx="125" cy="125" r="125"></circle>
                <g id="A-Human/Standing" transform="translate(30.000000, 40.000000)">
                    <g id="Head/Front/Airy" transform="translate(51.660000, 0.000000)">
                        <g id="Head" stroke-width="1" transform="translate(34.020000, 19.502347)" fill="#D4A181">
                            <path d="M24.0303051,5.7462301 C27.6810358,12.541302 27.2472341,29.7775655 22.5289899,30.9920343 C20.6473787,31.4763582 16.6390078,30.2899748 12.559402,27.8345168 L15.12,45.9248826 L0,45.9248826 L5.20394766,21.6965078 C2.3016698,18.2940951 0.337498362,14.1245948 0.66576909,9.45263296 C1.61174804,-4.01057632 20.3795743,-1.04884182 24.0303051,5.7462301 Z"></path>
                        </g>
                        <path d="M49.4322885,17.417016 C47.4395163,17.0906858 42.0738892,16.8663247 41.0843717,16.8664695 C40.4520233,16.8664695 39.7667503,17.0107327 39.3922289,16.430928 C39.0855262,15.9561342 39.1978826,15.1531272 39.106349,14.6021462 C39.0000659,13.9620871 38.8491005,13.3302839 38.6963998,12.7000741 C38.2618682,10.9067787 37.6047927,9.20067852 36.6854076,7.59886496 C34.9602953,4.59367211 32.4330709,2.23969128 29.242553,0.869915456 C25.7193039,-0.642530262 21.7324581,-0.988848756 17.9427059,-0.682072273 C13.8871736,-0.353859096 10.2159958,0.983037473 6.38691167,2.24113971 C2.7380027,3.44000134 -1.08385131,3.91189831 -4.90021041,3.3264448 C-8.74534548,2.73664601 -11.6507065,0.655548509 -14.8940044,-1.3196691 C-18.214231,-3.34181569 -22.0086104,-4.66437285 -25.9337109,-4.36034837 C-29.5976586,-4.07645701 -32.9745695,-2.5657494 -36.004289,-0.547658404 C-38.8389392,1.34050884 -41.1778907,3.61221911 -42.4984041,6.80947316 C-43.9189828,10.2487591 -43.9176814,14.0239348 -41.5816219,17.0634554 C-38.195601,21.4692755 -31.9095694,22.6086069 -26.6798617,22.49534 C-23.6549142,22.430016 -20.6840481,21.8786005 -17.8281413,20.875566 C-14.0194462,19.5378003 -10.7281401,17.2704353 -7.16498065,15.4307903 C-5.49279299,14.5675289 -3.76435482,13.8585247 -1.95262539,13.3478099 C-0.194543622,12.8520139 1.53707582,12.6246111 3.12886427,13.6851482 C4.81276476,14.8070984 6.32169577,15.9092052 8.24809528,16.6115467 C10.09612,17.2853541 12.0536092,17.6622344 14.0225219,17.6470259 C17.8533413,17.6174781 21.6296454,16.4255689 25.3502774,15.6271968 C28.3843349,14.9762745 31.6306695,14.3275248 34.7238696,14.9532445 C36.0145949,15.2143956 37.8999272,15.7534995 38.3661269,17.0930032 C30.5198302,18.5130394 27.4382055,28.2030048 29.6501957,35.3163664 C30.8440371,39.1557074 38.0203814,43.6438564 40.8106385,41.6254569 C42.5783466,40.3467427 41.5051661,38.6680226 40.8106385,37.5598324 C39.4805812,35.4375996 39.025516,32.7115183 41.4866569,31.2339796 C43.6095717,29.959655 45.8416704,32.9858378 45.8838944,32.9825064 C46.4673671,32.9365913 51.5090774,30.0893198 54.982724,25.9344286 C58.4094893,26.137276 58.9293792,23.8809544 58.1111348,22.0357074 C57.2928903,20.1904604 52.1856719,17.8682005 49.4322885,17.417016 Z" id="hair" fill="#191847"></path>
                    </g>
                    <g id="Bottom/Standing/Sprint" transform="translate(0.000000, 117.643192)">
                        <path d="M130.637423,-6.11958385 C118.606773,3.69111754 123.24335,89.7814259 122.440623,90.8647292 C122.083855,91.3461973 103.010553,95.432388 65.2207174,103.123301 L66.8565296,109.787311 C111.06556,107.621503 134.457344,104.897876 137.03188,101.616429 C140.717879,96.9183381 145.259946,70.632835 150.658083,22.7599202 L130.637423,-6.11958385 Z" id="Leg" fill="#BA8B72" transform="translate(107.939400, 51.833864) rotate(-55.000000) translate(-107.939400, -51.833864) "></path>
                        <path d="M71.5976202,96.1142855 L74.4782564,106.847319 C107.436306,110.655221 129.158623,105.983431 136.800807,98.710797 C141.895596,93.8623743 146.449453,67.648326 150.462377,20.0686522 L129.045305,-10.5180961 C100.405969,11.0907023 117.532698,81.9025821 116.801521,83.5220959 C116.070345,85.1416098 98.6912993,86.4110149 71.5976202,96.1142855 Z" id="Pant" fill="#69A1AC" transform="translate(111.029999, 48.843754) rotate(-55.000000) translate(-111.029999, -48.843754) "></path>
                        <g id="Accessories/Shoe/Flat-Sneaker" transform="translate(140.731866, 117.818790) rotate(20.000000) translate(-140.731866, -117.818790) translate(121.516866, 105.236630)" fill="#E4E4E4">
                            <path d="M1.40399689,16.7647095 C0.887998965,18.2554239 0.63,19.399832 0.63,20.1979338 C0.63,21.3323955 0.819260949,22.9878573 1.19778285,25.1643192 C2.51570414,25.1643192 14.3600847,25.1643192 36.7309245,25.1643192 C37.6543049,22.1159811 37.1212762,20.4702814 35.1318384,20.2272202 C33.1424006,19.984159 31.4897408,19.7646942 30.173859,19.5688258 L14.0053078,12.3710109 C13.5007602,12.1463995 12.9096602,12.3733327 12.6850489,12.8778802 C12.6813455,12.8861991 12.677756,12.8945682 12.6742812,12.9029851 L11.7578242,15.1229349 L11.7578242,15.1229349 C9.91612517,15.9810112 8.41955346,16.4100494 7.26810912,16.4100494 C6.46417365,16.4100494 5.39701545,16.1314291 4.06663454,15.5741886 L4.06662824,15.5742037 C3.04782827,15.1474713 1.87599277,15.6274369 1.4492604,16.6462369 C1.43292393,16.6852393 1.41782851,16.72475 1.40399689,16.7647095 Z" id="shoe"></path>
                        </g>
                        <polygon id="Leg" fill="#D4A181" points="81.9 0 49.3000437 78.15214 17.2593607 144.223187 24.8187948 144.223187 107.524423 0"></polygon>
                        <g id="Accessories/Shoe/Flat-Sneaker" transform="translate(15.120000, 125.192488)" fill="#E4E4E4">
                            <path d="M1.40399689,16.7647095 C0.887998965,18.2554239 0.63,19.399832 0.63,20.1979338 C0.63,21.3323955 0.819260949,22.9878573 1.19778285,25.1643192 C2.51570414,25.1643192 14.3600847,25.1643192 36.7309245,25.1643192 C37.6543049,22.1159811 37.1212762,20.4702814 35.1318384,20.2272202 C33.1424006,19.984159 31.4897408,19.7646942 30.173859,19.5688258 L14.0053078,12.3710109 C13.5007602,12.1463995 12.9096602,12.3733327 12.6850489,12.8778802 C12.6813455,12.8861991 12.677756,12.8945682 12.6742812,12.9029851 L11.7578242,15.1229349 L11.7578242,15.1229349 C9.91612517,15.9810112 8.41955346,16.4100494 7.26810912,16.4100494 C6.46417365,16.4100494 5.39701545,16.1314291 4.06663454,15.5741886 L4.06662824,15.5742037 C3.04782827,15.1474713 1.87599277,15.6274369 1.4492604,16.6462369 C1.43292393,16.6852393 1.41782851,16.72475 1.40399689,16.7647095 Z" id="shoe"></path>
                        </g>
                        <path d="M20.1527858,130.497686 L36.9499321,133.643226 C49.9374386,114.576212 104.290683,36.3950537 110.25,1.78803242e-14 L72.855766,1.78803242e-14 C52.9545748,26.3099387 32.5325616,111.115267 20.1527858,130.497686 Z" id="Pant" fill="#69A1AC"></path>
                    </g>
                    <g id="Body/Trench-Coat" transform="translate(13.860000, 51.586854)">
                        <path d="M34.2561287,44.315773 L45.1840342,47.0898306 C30.5556713,71.647852 22.7329371,84.626487 21.7158317,86.0257355 C19.4273446,89.1740449 21.0894839,95.2504556 21.6541892,98.4340811 C17.0200658,99.2589665 19.1868152,92.4706242 13.3176987,93.604492 C7.96064131,94.6394341 3.30020197,97.7710548 -1.39257742,92.97304 C-1.96952707,92.3831522 -2.32176266,90.6152738 -0.207810605,89.8286227 C5.05881488,87.868788 12.886033,84.0925678 14.204749,82.5364665 C16.0030538,80.4144443 22.6868471,67.6742132 34.2561287,44.315773 L34.2561287,44.315773 Z M124.546575,56.7733709 L143.564146,72.8732826 C148.898701,74.7180081 153.31362,76.8579889 156.808903,79.2932251 C157.615711,80.1374928 158.545978,81.7981405 154.991455,81.274161 C151.436932,80.7501814 147.674509,80.3586673 147.096165,81.5414563 C146.517821,82.7242454 148.578521,84.3309211 147.46673,85.9036686 C146.725537,86.952167 143.778317,83.9875223 138.625072,77.0097345 L119.348963,67.403168 L124.546575,56.7733709 Z" id="Skin" fill="#D4A181" transform="translate(77.859338, 71.409793) rotate(-4.000000) translate(-77.859338, -71.409793) "></path>
                        <path d="M87.1064222,1.28428888 C96.4987956,20.6714872 109.210014,39.2711469 128.092175,55.1591111 C130.677852,54.9735676 133.490147,55.4013019 136.505297,56.4157815 C137.989064,56.9150108 138.786616,58.5208439 138.286679,60.0025101 C137.996267,60.8632051 137.331912,61.4926707 136.53521,61.7712559 C137.112166,62.1911131 137.694469,62.6092828 138.28195,63.0250887 L133.212229,73.3600448 C111.878582,62.7381261 91.8269942,54.7297776 82.6899297,37.1938439 C79.6232947,31.3083312 80.6612634,11.3165579 80.3685544,4.04363474 L87.1064222,1.28428888 Z" id="Back-Arm" fill="#69A1AC"></path>
                        <path d="M56.7,71.6615298 C76.5061454,73.8342631 92.0957545,73.8342631 103.468827,71.6615298 C104.877875,71.3923427 104.815997,65.326825 104.162553,63.670275 C93.9867285,37.8734796 87.2929902,18.9890157 87.2929902,1.07114274 C85.4258545,2.04506015 82.1581911,2.19101385 77.49,1.50900383 C64.9443071,19.9739481 59.1774988,41.160359 56.7,71.6615298 Z" id="Shirt" fill="#191847"></path>
                        <path d="M79.5995076,-9.50726196e-15 C77.49,27.8573672 106.627274,88.6758527 96.5100737,140.617028 C77.8099497,144.787182 51.1131036,131.812444 25.1261721,142.178404 C26.0931596,121.260852 45.4633063,96.6874382 53.0202141,74.7105849 C52.3869797,74.114837 52.0394953,73.2399056 52.1445507,72.3245686 L52.16939,72.1536777 C52.1694693,72.1532269 52.1695488,72.1527761 52.1696284,72.1523254 L52.4965116,70.3011032 C52.7191082,69.0404829 53.7424498,68.1223228 54.9511089,67.9775499 C55.1648227,67.0338809 55.3471879,66.0960943 55.4977944,65.1651761 C56.7695823,57.3040907 54.5968086,49.596035 54.6986678,42.0266801 C44.5687146,50.6559286 35.4806118,65.5595108 27.4352077,86.7357725 L27.4352077,86.7357725 L15.5365322,83.2394646 C15.9906346,81.5548118 16.4610085,79.8908547 16.9476538,78.2475934 C15.5745271,77.4708048 13.9690226,73.8988854 15.1241606,73.3012467 C16.3166552,72.6842805 17.5799445,72.2499925 18.910309,71.9943156 C29.8206727,39.1811323 47.6619781,15.1825203 72.4346747,-2.56420863e-13 L72.4346747,-2.56420863e-13 Z" id="Coat-Front" fill="#89C5CC"></path>
                        <polygon id="Shade-Lapel" fill-opacity="0.1" fill="#000000" points="75.036628 0.629107981 71.7863603 10.6101861 78.3316778 18.0925438 72.4163603 23.9724783 86.7272182 48.4413146 69.2266595 24.0213634 75.036628 18.0925438 69.2266595 11.4802507"></polygon>
                        <path d="M86.31,81.7840376 C87.7017576,81.7840376 88.83,82.9106825 88.83,84.3004695 C88.83,85.6902565 87.7017576,86.8169014 86.31,86.8169014 C84.9182424,86.8169014 83.79,85.6902565 83.79,84.3004695 C83.79,82.9106825 84.9182424,81.7840376 86.31,81.7840376 Z M85.68,67.314554 C87.0717576,67.314554 88.2,68.4411989 88.2,69.8309859 C88.2,71.2207729 87.0717576,72.3474178 85.68,72.3474178 C84.2882424,72.3474178 83.16,71.2207729 83.16,69.8309859 C83.16,68.4411989 84.2882424,67.314554 85.68,67.314554 Z M82.53,52.8450704 C83.9217576,52.8450704 85.05,53.9717154 85.05,55.3615023 C85.05,56.7512893 83.9217576,57.8779343 82.53,57.8779343 C81.1382424,57.8779343 80.01,56.7512893 80.01,55.3615023 C80.01,53.9717154 81.1382424,52.8450704 82.53,52.8450704 Z" id="Buttons" fill-opacity="0.4" fill="#000000"></path>
                    </g>
                </g>
            </g>
        </g>
    </g>
</svg>