<?xml version="1.0" encoding="UTF-8"?>
<svg width="24px" height="24px" viewBox="0 0 24 24" version="1.1" xmlns="http://www.w3.org/2000/svg" xmlns:xlink="http://www.w3.org/1999/xlink">
    <!-- Generator: Sketch 60.1 (88133) - https://sketch.com -->
    <title>Icon/Checkmark Circle</title>
    <desc>Created with Sketch.</desc>
    <g id="Icon/Checkmark-Circle" stroke="none" stroke-width="1" fill="none" fill-rule="evenodd">
        <polygon id="24pt-Bounding-Box" opacity="0" fill-rule="nonzero" points="0 0 24 0 24 24 0 24"></polygon>
        <path d="M11.9999972,2.00000241 L12.3987054,2.00919996 C13.0625731,2.03708866 13.7226206,2.12770491 14.3699973,2.28000241 L14.3699973,2.28000241 C14.4108993,2.28725107 14.4513104,2.29704137 14.4909951,2.30931637 C15.0186171,2.47251637 15.3140391,3.03253537 15.1508391,3.56015637 C14.9876391,4.08777837 14.4276201,4.38320037 13.8999991,4.22000037 L13.8999991,4.22000037 L13.5243815,4.14288976 C13.0216151,4.05105663 12.5115591,4.00320361 11.9999991,4.00000241 L11.9999991,4.00000241 L11.6963156,4.00483539 C9.67635682,4.07566296 7.75503755,4.91588609 6.32999945,6.36000038 L6.32999945,6.36000038 L6.11155207,6.58860565 C4.75934893,8.06082725 4.00457727,9.989731 4.00365982,11.99634 C4.00163982,16.41462 7.58171982,19.9979799 11.9999998,20.0000024 L11.9999998,20.0000024 L12.2491794,19.9961956 C16.5521641,19.8645453 20,16.3349163 20,12.0000024 L20,12.0000024 L20.0067277,11.8833808 C20.0644928,11.3860403 20.4871639,11.0000024 21,11.0000024 L21,11.0000024 L21.1166179,11.00673 C21.6139568,11.0644939 21.9999967,11.4871571 21.9999967,12.0000024 L21.9999967,12.0000024 L21.9961549,12.2799069 C21.8479285,17.6733244 17.4292391,22.0000024 11.9999967,22.0000024 L11.9999967,22.0000024 L11.672313,21.9938338 C9.1650468,21.9052599 6.77932508,20.8701349 4.99999717,19.0899924 L4.99999717,19.0899924 L4.76996815,18.8535371 C3.03918924,17.0147213 2.06523211,14.585147 2.05193933,12.0518024 C2.02338716,6.52904241 6.47722716,2.02869321 11.9999972,2.00000241 L11.9999972,2.00000241 Z M18.220001,6.34000371 C18.579196,5.96603891 19.164653,5.92866891 19.568481,6.25392991 C19.998598,6.60035991 20.066436,7.22988291 19.72,7.65999991 L19.72,7.65999991 L12.72,15.6599999 C12.537413,15.8681149 12.276718,15.9912216 12,16.0000167 L12,16.0000167 L11.8682201,15.9920609 C11.650892,15.9644526 11.4472658,15.8659891 11.2899999,15.7099999 L11.2899999,15.7099999 L8.28999993,12.7099999 L8.28999993,12.7099999 L8.20647101,12.6154076 C7.90019832,12.2215126 7.9280413,11.6519587 8.29000007,11.2899999 C8.68212007,10.8978781 9.31787807,10.8978781 9.71000007,11.2900001 L9.71000007,11.2900001 L12.000001,13.5400037 Z" id="Fill" fill="#00B330"></path>
    </g>
</svg>